# xmcd
#
# Track frame offsets: 
#        150
#        34010
#        62247
#        90200
#        129847
#        155867
#        187215
#
# Disc length: 2754 seconds
#
# Revision: 2
# Processed by: cddbd v1.5.2PL0 Copyright (c) Steve Scherf et al.
# Submitted via: ExactAudioCopy v1.3
#
DISCID=580ac007
DTITLE=Bobby Brown - The Freestyle Mega Mix - Seventeen - Girl Friend 
DTITLE=(CDM)
DYEAR=1991
DGENRE=Funk
TTITLE0=The Freestyle Mega Mix
TTITLE1=Girl Friend
TTITLE2=Girl Friend (Instrumental)
TTITLE3=Seventeen (Extended Club Versiom)
TTITLE4=Seventeen (Radio Edit)
TTITLE5=Seventeen (Instrumental)
TTITLE6=Seventeen (Bounus Beats)
EXTD=
EXTT0=
EXTT1=
EXTT2=
EXTT3=
EXTT4=
EXTT5=
EXTT6=
PLAYORDER=
